<mxfile host="app.diagrams.net" modified="2023-04-17T08:57:38.663Z" agent="5.0 (Windows NT 10.0; Win64; x64) AppleWebKit/537.36 (KHTML, like Gecko) Chrome/111.0.0.0 Safari/537.36" etag="369LG0bZB7K6nZJxf4J-" version="21.0.2" type="github">
  <diagram name="第 1 页" id="ZdYJFvP875uwJYrcXZKz">
    <mxGraphModel dx="1674" dy="4008" grid="1" gridSize="10" guides="1" tooltips="1" connect="1" arrows="1" fold="1" page="1" pageScale="1" pageWidth="2339" pageHeight="3300" math="0" shadow="0">
      <root>
        <mxCell id="0" />
        <mxCell id="1" parent="0" />
        <mxCell id="8QBZkefJyZ8zBn_YgFsc-3" style="edgeStyle=orthogonalEdgeStyle;rounded=0;orthogonalLoop=1;jettySize=auto;html=1;entryX=0.5;entryY=0;entryDx=0;entryDy=0;" edge="1" parent="1" source="8QBZkefJyZ8zBn_YgFsc-1" target="8QBZkefJyZ8zBn_YgFsc-2">
          <mxGeometry relative="1" as="geometry" />
        </mxCell>
        <mxCell id="8QBZkefJyZ8zBn_YgFsc-1" value="谷歌订阅" style="rounded=0;whiteSpace=wrap;html=1;" vertex="1" parent="1">
          <mxGeometry x="130" y="-170" width="120" height="60" as="geometry" />
        </mxCell>
        <mxCell id="8QBZkefJyZ8zBn_YgFsc-20" value="" style="edgeStyle=orthogonalEdgeStyle;rounded=0;orthogonalLoop=1;jettySize=auto;html=1;" edge="1" parent="1" source="8QBZkefJyZ8zBn_YgFsc-2" target="8QBZkefJyZ8zBn_YgFsc-19">
          <mxGeometry relative="1" as="geometry" />
        </mxCell>
        <mxCell id="8QBZkefJyZ8zBn_YgFsc-28" value="" style="edgeStyle=orthogonalEdgeStyle;rounded=0;orthogonalLoop=1;jettySize=auto;html=1;entryX=0;entryY=0.5;entryDx=0;entryDy=0;" edge="1" parent="1" source="8QBZkefJyZ8zBn_YgFsc-2" target="8QBZkefJyZ8zBn_YgFsc-31">
          <mxGeometry relative="1" as="geometry">
            <mxPoint x="1130" y="40" as="targetPoint" />
            <Array as="points">
              <mxPoint x="190" y="180" />
              <mxPoint x="1320" y="180" />
            </Array>
          </mxGeometry>
        </mxCell>
        <mxCell id="8QBZkefJyZ8zBn_YgFsc-2" value="接受消息推送" style="rounded=0;whiteSpace=wrap;html=1;" vertex="1" parent="1">
          <mxGeometry x="130" y="10" width="120" height="60" as="geometry" />
        </mxCell>
        <mxCell id="8QBZkefJyZ8zBn_YgFsc-12" value="" style="edgeStyle=orthogonalEdgeStyle;rounded=0;orthogonalLoop=1;jettySize=auto;html=1;" edge="1" parent="1" source="8QBZkefJyZ8zBn_YgFsc-4" target="8QBZkefJyZ8zBn_YgFsc-11">
          <mxGeometry relative="1" as="geometry" />
        </mxCell>
        <mxCell id="8QBZkefJyZ8zBn_YgFsc-32" style="edgeStyle=orthogonalEdgeStyle;rounded=0;orthogonalLoop=1;jettySize=auto;html=1;exitX=0.5;exitY=1;exitDx=0;exitDy=0;entryX=0.5;entryY=0;entryDx=0;entryDy=0;" edge="1" parent="1" source="8QBZkefJyZ8zBn_YgFsc-4" target="8QBZkefJyZ8zBn_YgFsc-26">
          <mxGeometry relative="1" as="geometry" />
        </mxCell>
        <mxCell id="8QBZkefJyZ8zBn_YgFsc-4" value="是否是续订" style="rhombus;whiteSpace=wrap;html=1;" vertex="1" parent="1">
          <mxGeometry x="150" y="280" width="80" height="80" as="geometry" />
        </mxCell>
        <mxCell id="8QBZkefJyZ8zBn_YgFsc-9" value="" style="edgeStyle=orthogonalEdgeStyle;rounded=0;orthogonalLoop=1;jettySize=auto;html=1;" edge="1" parent="1" source="8QBZkefJyZ8zBn_YgFsc-5" target="8QBZkefJyZ8zBn_YgFsc-8">
          <mxGeometry relative="1" as="geometry" />
        </mxCell>
        <mxCell id="8QBZkefJyZ8zBn_YgFsc-5" value="通过凭证获取旧关联第一笔订单支付信息" style="whiteSpace=wrap;html=1;" vertex="1" parent="1">
          <mxGeometry x="130" y="530" width="120" height="60" as="geometry" />
        </mxCell>
        <mxCell id="8QBZkefJyZ8zBn_YgFsc-7" value="Y" style="text;html=1;strokeColor=none;fillColor=none;align=center;verticalAlign=middle;whiteSpace=wrap;rounded=0;" vertex="1" parent="1">
          <mxGeometry x="140" y="360" width="60" height="30" as="geometry" />
        </mxCell>
        <mxCell id="8QBZkefJyZ8zBn_YgFsc-8" value="入库google凭证表&lt;br&gt;入库订单表&lt;br&gt;入库免广告权益表" style="whiteSpace=wrap;html=1;" vertex="1" parent="1">
          <mxGeometry x="130" y="660" width="120" height="60" as="geometry" />
        </mxCell>
        <mxCell id="8QBZkefJyZ8zBn_YgFsc-18" value="" style="edgeStyle=orthogonalEdgeStyle;rounded=0;orthogonalLoop=1;jettySize=auto;html=1;" edge="1" parent="1" source="8QBZkefJyZ8zBn_YgFsc-11" target="8QBZkefJyZ8zBn_YgFsc-17">
          <mxGeometry relative="1" as="geometry" />
        </mxCell>
        <mxCell id="8QBZkefJyZ8zBn_YgFsc-37" value="" style="edgeStyle=orthogonalEdgeStyle;rounded=0;orthogonalLoop=1;jettySize=auto;html=1;" edge="1" parent="1" source="8QBZkefJyZ8zBn_YgFsc-11" target="8QBZkefJyZ8zBn_YgFsc-36">
          <mxGeometry relative="1" as="geometry" />
        </mxCell>
        <mxCell id="8QBZkefJyZ8zBn_YgFsc-11" value="是否是退款" style="rhombus;whiteSpace=wrap;html=1;" vertex="1" parent="1">
          <mxGeometry x="340" y="280" width="80" height="80" as="geometry" />
        </mxCell>
        <mxCell id="8QBZkefJyZ8zBn_YgFsc-35" value="" style="edgeStyle=orthogonalEdgeStyle;rounded=0;orthogonalLoop=1;jettySize=auto;html=1;" edge="1" parent="1" source="8QBZkefJyZ8zBn_YgFsc-17" target="8QBZkefJyZ8zBn_YgFsc-34">
          <mxGeometry relative="1" as="geometry" />
        </mxCell>
        <mxCell id="8QBZkefJyZ8zBn_YgFsc-17" value="调用谷歌接口进行凭证校验" style="whiteSpace=wrap;html=1;" vertex="1" parent="1">
          <mxGeometry x="320" y="420" width="120" height="60" as="geometry" />
        </mxCell>
        <mxCell id="8QBZkefJyZ8zBn_YgFsc-22" value="" style="edgeStyle=orthogonalEdgeStyle;rounded=0;orthogonalLoop=1;jettySize=auto;html=1;" edge="1" parent="1" source="8QBZkefJyZ8zBn_YgFsc-19" target="8QBZkefJyZ8zBn_YgFsc-4">
          <mxGeometry relative="1" as="geometry" />
        </mxCell>
        <mxCell id="8QBZkefJyZ8zBn_YgFsc-19" value="是否是订阅商品" style="rhombus;whiteSpace=wrap;html=1;rounded=0;" vertex="1" parent="1">
          <mxGeometry x="140" y="140" width="100" height="80" as="geometry" />
        </mxCell>
        <mxCell id="8QBZkefJyZ8zBn_YgFsc-23" value="Y" style="text;html=1;strokeColor=none;fillColor=none;align=center;verticalAlign=middle;whiteSpace=wrap;rounded=0;" vertex="1" parent="1">
          <mxGeometry x="140" y="220" width="60" height="30" as="geometry" />
        </mxCell>
        <mxCell id="8QBZkefJyZ8zBn_YgFsc-24" value="N" style="text;html=1;strokeColor=none;fillColor=none;align=center;verticalAlign=middle;whiteSpace=wrap;rounded=0;" vertex="1" parent="1">
          <mxGeometry x="230" y="290" width="60" height="30" as="geometry" />
        </mxCell>
        <mxCell id="8QBZkefJyZ8zBn_YgFsc-25" value="Y" style="text;html=1;strokeColor=none;fillColor=none;align=center;verticalAlign=middle;whiteSpace=wrap;rounded=0;" vertex="1" parent="1">
          <mxGeometry x="330" y="360" width="60" height="30" as="geometry" />
        </mxCell>
        <mxCell id="8QBZkefJyZ8zBn_YgFsc-33" style="edgeStyle=orthogonalEdgeStyle;rounded=0;orthogonalLoop=1;jettySize=auto;html=1;entryX=0.5;entryY=0;entryDx=0;entryDy=0;" edge="1" parent="1" source="8QBZkefJyZ8zBn_YgFsc-26" target="8QBZkefJyZ8zBn_YgFsc-5">
          <mxGeometry relative="1" as="geometry" />
        </mxCell>
        <mxCell id="8QBZkefJyZ8zBn_YgFsc-26" value="调用谷歌接口进行凭证校验" style="whiteSpace=wrap;html=1;" vertex="1" parent="1">
          <mxGeometry x="130" y="420" width="120" height="60" as="geometry" />
        </mxCell>
        <mxCell id="8QBZkefJyZ8zBn_YgFsc-29" value="Y" style="text;html=1;strokeColor=none;fillColor=none;align=center;verticalAlign=middle;whiteSpace=wrap;rounded=0;" vertex="1" parent="1">
          <mxGeometry x="140" y="90" width="60" height="30" as="geometry" />
        </mxCell>
        <mxCell id="8QBZkefJyZ8zBn_YgFsc-30" value="N" style="text;html=1;strokeColor=none;fillColor=none;align=center;verticalAlign=middle;whiteSpace=wrap;rounded=0;" vertex="1" parent="1">
          <mxGeometry x="270" y="130" width="60" height="30" as="geometry" />
        </mxCell>
        <mxCell id="8QBZkefJyZ8zBn_YgFsc-61" value="" style="edgeStyle=orthogonalEdgeStyle;rounded=0;orthogonalLoop=1;jettySize=auto;html=1;" edge="1" parent="1" source="8QBZkefJyZ8zBn_YgFsc-31" target="8QBZkefJyZ8zBn_YgFsc-60">
          <mxGeometry relative="1" as="geometry" />
        </mxCell>
        <mxCell id="8QBZkefJyZ8zBn_YgFsc-31" value="一次性商品延迟支付" style="rounded=0;whiteSpace=wrap;html=1;" vertex="1" parent="1">
          <mxGeometry x="1340" y="150" width="120" height="60" as="geometry" />
        </mxCell>
        <mxCell id="8QBZkefJyZ8zBn_YgFsc-34" value="&lt;br&gt;操作表：iap-order表&lt;br&gt;通过凭证把最近一笔&lt;br&gt;订单状态修改为退款&lt;br&gt;记录退款时间、地区、" style="whiteSpace=wrap;html=1;" vertex="1" parent="1">
          <mxGeometry x="300" y="530" width="160" height="80" as="geometry" />
        </mxCell>
        <mxCell id="8QBZkefJyZ8zBn_YgFsc-39" value="" style="edgeStyle=orthogonalEdgeStyle;rounded=0;orthogonalLoop=1;jettySize=auto;html=1;" edge="1" parent="1" source="8QBZkefJyZ8zBn_YgFsc-36" target="8QBZkefJyZ8zBn_YgFsc-38">
          <mxGeometry relative="1" as="geometry" />
        </mxCell>
        <mxCell id="8QBZkefJyZ8zBn_YgFsc-42" value="" style="edgeStyle=orthogonalEdgeStyle;rounded=0;orthogonalLoop=1;jettySize=auto;html=1;" edge="1" parent="1" source="8QBZkefJyZ8zBn_YgFsc-36" target="8QBZkefJyZ8zBn_YgFsc-41">
          <mxGeometry relative="1" as="geometry" />
        </mxCell>
        <mxCell id="8QBZkefJyZ8zBn_YgFsc-36" value="是否是第一次&lt;br&gt;购买续订" style="rhombus;whiteSpace=wrap;html=1;" vertex="1" parent="1">
          <mxGeometry x="520" y="275" width="110" height="90" as="geometry" />
        </mxCell>
        <mxCell id="8QBZkefJyZ8zBn_YgFsc-38" value="因app也会上报，&lt;br&gt;忽略谷歌的推送" style="whiteSpace=wrap;html=1;" vertex="1" parent="1">
          <mxGeometry x="515" y="430" width="120" height="60" as="geometry" />
        </mxCell>
        <mxCell id="8QBZkefJyZ8zBn_YgFsc-40" value="Y" style="text;html=1;strokeColor=none;fillColor=none;align=center;verticalAlign=middle;whiteSpace=wrap;rounded=0;" vertex="1" parent="1">
          <mxGeometry x="520" y="365" width="60" height="30" as="geometry" />
        </mxCell>
        <mxCell id="8QBZkefJyZ8zBn_YgFsc-44" value="" style="edgeStyle=orthogonalEdgeStyle;rounded=0;orthogonalLoop=1;jettySize=auto;html=1;" edge="1" parent="1" source="8QBZkefJyZ8zBn_YgFsc-41" target="8QBZkefJyZ8zBn_YgFsc-43">
          <mxGeometry relative="1" as="geometry" />
        </mxCell>
        <mxCell id="8QBZkefJyZ8zBn_YgFsc-47" value="" style="edgeStyle=orthogonalEdgeStyle;rounded=0;orthogonalLoop=1;jettySize=auto;html=1;" edge="1" parent="1" source="8QBZkefJyZ8zBn_YgFsc-41" target="8QBZkefJyZ8zBn_YgFsc-46">
          <mxGeometry relative="1" as="geometry" />
        </mxCell>
        <mxCell id="8QBZkefJyZ8zBn_YgFsc-41" value="是否取消续订" style="rhombus;whiteSpace=wrap;html=1;" vertex="1" parent="1">
          <mxGeometry x="722.5" y="280" width="110" height="80" as="geometry" />
        </mxCell>
        <mxCell id="8QBZkefJyZ8zBn_YgFsc-43" value="通过推送消息的凭证，&lt;br&gt;找出verify_google表最近一&lt;br&gt;笔数据，标记为&lt;br&gt;auto_renew_status为0" style="whiteSpace=wrap;html=1;" vertex="1" parent="1">
          <mxGeometry x="695" y="430" width="165" height="60" as="geometry" />
        </mxCell>
        <mxCell id="8QBZkefJyZ8zBn_YgFsc-45" value="Y" style="text;html=1;strokeColor=none;fillColor=none;align=center;verticalAlign=middle;whiteSpace=wrap;rounded=0;" vertex="1" parent="1">
          <mxGeometry x="730" y="360" width="60" height="30" as="geometry" />
        </mxCell>
        <mxCell id="8QBZkefJyZ8zBn_YgFsc-49" value="" style="edgeStyle=orthogonalEdgeStyle;rounded=0;orthogonalLoop=1;jettySize=auto;html=1;" edge="1" parent="1" source="8QBZkefJyZ8zBn_YgFsc-46">
          <mxGeometry relative="1" as="geometry">
            <mxPoint x="967.5" y="450" as="targetPoint" />
          </mxGeometry>
        </mxCell>
        <mxCell id="8QBZkefJyZ8zBn_YgFsc-46" value="是否重新续订" style="rhombus;whiteSpace=wrap;html=1;" vertex="1" parent="1">
          <mxGeometry x="912.5" y="280" width="110" height="80" as="geometry" />
        </mxCell>
        <mxCell id="8QBZkefJyZ8zBn_YgFsc-50" value="Y" style="text;html=1;strokeColor=none;fillColor=none;align=center;verticalAlign=middle;whiteSpace=wrap;rounded=0;" vertex="1" parent="1">
          <mxGeometry x="907.5" y="370" width="60" height="30" as="geometry" />
        </mxCell>
        <mxCell id="8QBZkefJyZ8zBn_YgFsc-53" value="" style="edgeStyle=orthogonalEdgeStyle;rounded=0;orthogonalLoop=1;jettySize=auto;html=1;" edge="1" parent="1" source="8QBZkefJyZ8zBn_YgFsc-51" target="8QBZkefJyZ8zBn_YgFsc-52">
          <mxGeometry relative="1" as="geometry" />
        </mxCell>
        <mxCell id="8QBZkefJyZ8zBn_YgFsc-58" value="" style="edgeStyle=orthogonalEdgeStyle;rounded=0;orthogonalLoop=1;jettySize=auto;html=1;" edge="1" parent="1" source="8QBZkefJyZ8zBn_YgFsc-51" target="8QBZkefJyZ8zBn_YgFsc-57">
          <mxGeometry relative="1" as="geometry" />
        </mxCell>
        <mxCell id="8QBZkefJyZ8zBn_YgFsc-51" value="是否还未过期" style="rhombus;whiteSpace=wrap;html=1;" vertex="1" parent="1">
          <mxGeometry x="928" y="450" width="80" height="80" as="geometry" />
        </mxCell>
        <mxCell id="8QBZkefJyZ8zBn_YgFsc-52" value="verify_google表&lt;br&gt;标记关联凭证的&lt;br style=&quot;border-color: var(--border-color);&quot;&gt;auto_renew_status为1" style="whiteSpace=wrap;html=1;" vertex="1" parent="1">
          <mxGeometry x="908" y="620" width="120" height="60" as="geometry" />
        </mxCell>
        <mxCell id="8QBZkefJyZ8zBn_YgFsc-54" value="Y" style="text;html=1;strokeColor=none;fillColor=none;align=center;verticalAlign=middle;whiteSpace=wrap;rounded=0;" vertex="1" parent="1">
          <mxGeometry x="908" y="545" width="60" height="30" as="geometry" />
        </mxCell>
        <mxCell id="8QBZkefJyZ8zBn_YgFsc-57" value="移动端gp未能支付成功，覆盖不到该场景" style="whiteSpace=wrap;html=1;" vertex="1" parent="1">
          <mxGeometry x="1068" y="460" width="120" height="60" as="geometry" />
        </mxCell>
        <mxCell id="8QBZkefJyZ8zBn_YgFsc-59" value="Y" style="text;html=1;strokeColor=none;fillColor=none;align=center;verticalAlign=middle;whiteSpace=wrap;rounded=0;" vertex="1" parent="1">
          <mxGeometry x="1000" y="460" width="60" height="30" as="geometry" />
        </mxCell>
        <mxCell id="8QBZkefJyZ8zBn_YgFsc-63" value="" style="edgeStyle=orthogonalEdgeStyle;rounded=0;orthogonalLoop=1;jettySize=auto;html=1;" edge="1" parent="1" source="8QBZkefJyZ8zBn_YgFsc-60" target="8QBZkefJyZ8zBn_YgFsc-62">
          <mxGeometry relative="1" as="geometry" />
        </mxCell>
        <mxCell id="8QBZkefJyZ8zBn_YgFsc-60" value="通过凭证获取一次性商品消息" style="rounded=0;whiteSpace=wrap;html=1;" vertex="1" parent="1">
          <mxGeometry x="1310" y="270" width="180" height="40" as="geometry" />
        </mxCell>
        <mxCell id="8QBZkefJyZ8zBn_YgFsc-65" value="" style="edgeStyle=orthogonalEdgeStyle;rounded=0;orthogonalLoop=1;jettySize=auto;html=1;" edge="1" parent="1" source="8QBZkefJyZ8zBn_YgFsc-62" target="8QBZkefJyZ8zBn_YgFsc-64">
          <mxGeometry relative="1" as="geometry" />
        </mxCell>
        <mxCell id="8QBZkefJyZ8zBn_YgFsc-68" value="" style="edgeStyle=orthogonalEdgeStyle;rounded=0;orthogonalLoop=1;jettySize=auto;html=1;" edge="1" parent="1" source="8QBZkefJyZ8zBn_YgFsc-62" target="8QBZkefJyZ8zBn_YgFsc-67">
          <mxGeometry relative="1" as="geometry" />
        </mxCell>
        <mxCell id="8QBZkefJyZ8zBn_YgFsc-62" value="一次性商品&lt;br&gt;延迟购买" style="rhombus;whiteSpace=wrap;html=1;rounded=0;" vertex="1" parent="1">
          <mxGeometry x="1350" y="350" width="100" height="90" as="geometry" />
        </mxCell>
        <mxCell id="8QBZkefJyZ8zBn_YgFsc-64" value="通过凭证更新待支付&lt;br&gt;订单状态。&lt;br&gt;更新权益表&lt;br&gt;ads_interest_member&lt;br&gt;为有效" style="whiteSpace=wrap;html=1;rounded=0;" vertex="1" parent="1">
          <mxGeometry x="1320" y="490" width="160" height="85" as="geometry" />
        </mxCell>
        <mxCell id="8QBZkefJyZ8zBn_YgFsc-66" value="Y" style="text;html=1;strokeColor=none;fillColor=none;align=center;verticalAlign=middle;whiteSpace=wrap;rounded=0;" vertex="1" parent="1">
          <mxGeometry x="1350" y="445" width="60" height="30" as="geometry" />
        </mxCell>
        <mxCell id="8QBZkefJyZ8zBn_YgFsc-71" value="" style="edgeStyle=orthogonalEdgeStyle;rounded=0;orthogonalLoop=1;jettySize=auto;html=1;" edge="1" parent="1" source="8QBZkefJyZ8zBn_YgFsc-67" target="8QBZkefJyZ8zBn_YgFsc-70">
          <mxGeometry relative="1" as="geometry" />
        </mxCell>
        <mxCell id="8QBZkefJyZ8zBn_YgFsc-67" value="延迟支付商品退款" style="whiteSpace=wrap;html=1;rounded=0;" vertex="1" parent="1">
          <mxGeometry x="1535" y="365" width="120" height="60" as="geometry" />
        </mxCell>
        <mxCell id="8QBZkefJyZ8zBn_YgFsc-69" value="N" style="text;html=1;strokeColor=none;fillColor=none;align=center;verticalAlign=middle;whiteSpace=wrap;rounded=0;" vertex="1" parent="1">
          <mxGeometry x="1450" y="365" width="60" height="30" as="geometry" />
        </mxCell>
        <mxCell id="8QBZkefJyZ8zBn_YgFsc-70" value="通过关联凭证&lt;br&gt;更新的order表为退款状态&lt;br&gt;更新权益表为无效" style="whiteSpace=wrap;html=1;rounded=0;" vertex="1" parent="1">
          <mxGeometry x="1510" y="505" width="170" height="55" as="geometry" />
        </mxCell>
      </root>
    </mxGraphModel>
  </diagram>
</mxfile>
